<svg width="100" height="90" viewBox="0 0 100 90" fill="none" xmlns="http://www.w3.org/2000/svg">
<path d="M73.4375 0.859375C68.0111 0.859375 63.0361 2.57891 58.651 5.97031C54.4469 9.22168 51.6479 13.3629 50 16.3742C48.3521 13.3627 45.5531 9.22168 41.349 5.97031C36.9639 2.57891 31.9889 0.859375 26.5625 0.859375C11.4195 0.859375 0 13.2455 0 29.6707C0 47.4156 14.2467 59.5564 35.8143 77.9359C39.4768 81.0572 43.6281 84.5951 47.943 88.3684C48.5117 88.8664 49.2422 89.1406 50 89.1406C50.7578 89.1406 51.4883 88.8664 52.057 88.3686C56.3723 84.5947 60.5234 81.057 64.1881 77.934C85.7533 59.5564 100 47.4156 100 29.6707C100 13.2455 88.5805 0.859375 73.4375 0.859375Z" fill="white"/>
</svg>
