<svg width="26" height="25" viewBox="0 0 26 25" fill="none" xmlns="http://www.w3.org/2000/svg">
<g clip-path="url(#clip0)">
<path d="M13.1574 23.6092C12.8073 23.6092 12.4697 23.4802 12.2067 23.246C11.2131 22.3629 10.2552 21.533 9.4101 20.801L9.40578 20.7972C6.92802 18.6508 4.78838 16.7973 3.29966 14.9714C1.6355 12.9301 0.860367 10.9947 0.860367 8.88042C0.860367 6.82621 1.55331 4.93107 2.81143 3.54385C4.08455 2.14024 5.83146 1.36719 7.73093 1.36719C9.1506 1.36719 10.4507 1.82343 11.5951 2.72312C12.1727 3.17726 12.6962 3.73306 13.1574 4.38137C13.6188 3.73306 14.1421 3.17726 14.7199 2.72312C15.8643 1.82343 17.1644 1.36719 18.5841 1.36719C20.4834 1.36719 22.2305 2.14024 23.5036 3.54385C24.7617 4.93107 25.4545 6.82621 25.4545 8.88042C25.4545 10.9947 24.6795 12.9301 23.0154 14.9712C21.5266 16.7973 19.3872 18.6506 16.9098 20.7968C16.0632 21.53 15.1038 22.3612 14.108 23.2464C13.8451 23.4802 13.5074 23.6092 13.1574 23.6092ZM7.73093 2.83165C6.23864 2.83165 4.86775 3.43704 3.87046 4.53644C2.85834 5.65243 2.30086 7.19509 2.30086 8.88042C2.30086 10.6586 2.95103 12.249 4.40879 14.0369C5.81777 15.7652 7.9135 17.5806 10.34 19.6827L10.3445 19.6865C11.1928 20.4214 12.1545 21.2545 13.1554 22.1441C14.1622 21.2528 15.1254 20.4184 15.9754 19.6823C18.4017 17.5802 20.4973 15.7652 21.9062 14.0369C23.3638 12.249 24.014 10.6586 24.014 8.88042C24.014 7.19509 23.4565 5.65243 22.4444 4.53644C21.4473 3.43704 20.0762 2.83165 18.5841 2.83165C17.4909 2.83165 16.4872 3.18489 15.601 3.88145C14.8113 4.50249 14.2611 5.28755 13.9386 5.83687C13.7727 6.11935 13.4807 6.28796 13.1574 6.28796C12.8341 6.28796 12.5422 6.11935 12.3763 5.83687C12.0539 5.28755 11.5038 4.50249 10.7138 3.88145C9.82759 3.18489 8.82392 2.83165 7.73093 2.83165Z" fill="#EFEFEF"/>
</g>
<defs>
<clipPath id="clip0">
<rect width="24.5942" height="25" fill="white" transform="translate(0.860367)"/>
</clipPath>
</defs>
</svg>
