<svg width="25" height="25" viewBox="0 0 25 25" fill="none" xmlns="http://www.w3.org/2000/svg">
<g clip-path="url(#clip0)">
<path d="M24.6866 12.2072C25.1398 11.7088 25.0961 10.9449 24.5889 10.5014L13.4161 0.725123C12.909 0.281635 12.0959 0.290926 11.5994 0.746067L0.388623 11.0226C-0.107835 11.4778 -0.132202 12.2407 0.334674 12.726L0.615745 13.0187C1.08205 13.504 1.83578 13.5619 2.29818 13.1476L3.13601 12.3973V23.3819C3.13601 24.0559 3.6821 24.6015 4.35556 24.6015H8.72557C9.39903 24.6015 9.94512 24.0559 9.94512 23.3819V15.6971H15.5191V23.3819C15.5094 24.0554 15.9913 24.601 16.6647 24.601H21.2958C21.9693 24.601 22.5154 24.0554 22.5154 23.3815V12.5519C22.5154 12.5519 22.7468 12.7547 23.0323 13.0056C23.3173 13.2561 23.9159 13.0553 24.369 12.5563L24.6866 12.2072Z" fill="white"/>
</g>
<defs>
<clipPath id="clip0">
<rect width="25" height="25" fill="white"/>
</clipPath>
</defs>
</svg>
