<svg width="12" height="12" viewBox="0 0 12 12" fill="none" xmlns="http://www.w3.org/2000/svg">
<path d="M10.8 0C10.4688 0 10.2 0.2688 10.2 0.6V4.974L1.494 0.0768C1.3104 -0.0264 1.0812 -0.0252 0.897598 0.0816C0.713999 0.1884 0.599998 0.3864 0.599998 0.6V11.4C0.599998 11.6136 0.713999 11.8104 0.897598 11.9184C0.989998 11.9724 1.0956 12 1.2 12C1.302 12 1.4028 11.9748 1.494 11.9232L10.2 7.026V11.4C10.2 11.7312 10.4688 12 10.8 12C11.1312 12 11.4 11.7312 11.4 11.4V0.6C11.4 0.2688 11.1312 0 10.8 0Z" fill="#EFEFEF"/>
</svg>
