<svg width="100" height="100" viewBox="0 0 100 100" fill="none" xmlns="http://www.w3.org/2000/svg">
<path d="M62.0795 0H83.792C85.1431 0 86.2385 1.09542 86.2385 2.44648V97.5535C86.2385 98.9046 85.1431 100 83.792 100H62.0795C60.7284 100 59.633 98.9046 59.633 97.5535V2.44648C59.633 1.09542 60.7284 0 62.0795 0Z" fill="white"/>
<path d="M16.208 0H37.9205C39.2716 0 40.367 1.09542 40.367 2.44648V97.5535C40.367 98.9046 39.2716 100 37.9205 100H16.208C14.8569 100 13.7615 98.9046 13.7615 97.5535V2.44648C13.7615 1.09542 14.8569 0 16.208 0Z" fill="white"/>
</svg>
