<svg width="100" height="100" viewBox="0 0 100 100" fill="none" xmlns="http://www.w3.org/2000/svg">
<path d="M37.3316 13.8769L21.8854 31.25H4.16667C1.86458 31.25 0 33.3476 0 35.9375V64.0625C0 66.6504 1.86458 68.75 4.16667 68.75H21.8854L37.3316 86.123C39.941 89.0586 44.4444 86.9961 44.4444 82.8086V17.1914C44.4444 13 39.9375 10.9453 37.3316 13.8769ZM77.8385 3.90038C75.8993 2.46874 73.2934 3.07226 72.0208 5.2578C70.7465 7.43944 71.2882 10.3711 73.2274 11.8027C84.7326 20.2969 91.599 34.5762 91.599 50.0019C91.599 65.4277 84.7326 79.707 73.2274 88.2012C71.2882 89.6309 70.7465 92.5644 72.0208 94.7441C73.2431 96.8359 75.8281 97.5879 77.8385 96.1016C91.7135 85.8555 100 68.6191 100 50C100 31.3809 91.7135 14.1465 77.8385 3.90038ZM83.3333 50C83.3333 37.5918 77.7674 26.1836 68.4427 19.4844C66.5 18.0898 63.9236 18.7383 62.6927 20.9414C61.4618 23.1445 62.0365 26.0605 63.9792 27.457C70.8802 32.416 75 40.8418 75 50C75 59.1582 70.8802 67.584 63.9792 72.543C62.0365 73.9375 61.4618 76.8535 62.6927 79.0586C63.8229 81.082 66.3594 82.0156 68.4427 80.5156C77.7674 73.8164 83.3333 62.4102 83.3333 50ZM58.7205 34.9863C56.7101 33.75 54.1736 34.5644 53.059 36.832C51.9496 39.0996 52.684 41.9492 54.6997 43.2012C56.941 44.5859 58.3333 47.1934 58.3333 50C58.3333 52.8086 56.941 55.4141 54.7014 56.7988C52.6858 58.0508 51.9514 60.9004 53.0608 63.168C54.1771 65.4453 56.7153 66.2539 58.7222 65.0137C63.6233 61.9766 66.6684 56.2246 66.6684 49.998C66.6684 43.7715 63.6233 38.0215 58.7205 34.9863Z" fill="white"/>
</svg>
