<svg width="100" height="100" viewBox="0 0 100 100" fill="none" xmlns="http://www.w3.org/2000/svg">
<g clip-path="url(#clip0)">
<path d="M55.9974 14.0703L32.8281 31.4453H6.25C2.79688 31.4453 0 33.543 0 36.1328V64.2578C0 66.8457 2.79688 68.9453 6.25 68.9453H32.8281L55.9974 86.3184C59.9115 89.2539 66.6667 87.1914 66.6667 83.0039V17.3867C66.6667 13.1934 59.9063 11.1407 55.9974 14.0703V14.0703ZM88.0807 35.1797C85.0651 33.9434 81.2604 34.7578 79.5885 37.0254C77.9245 39.293 79.026 42.1426 82.0495 43.3946C85.4115 44.7813 87.5 47.3867 87.5 50.1953C87.5 53.0039 85.4115 55.6094 82.0521 56.9942C79.0286 58.2461 77.9271 61.0957 79.5912 63.3633C81.2656 65.6407 85.0729 66.4492 88.0833 65.209C95.4349 62.1719 100.003 56.4199 100.003 50.1934C100.003 43.9668 95.4349 38.2168 88.0807 35.1797Z" fill="white"/>
</g>
<defs>
<clipPath id="clip0">
<rect width="100" height="100" fill="white"/>
</clipPath>
</defs>
</svg>
